<svg width="87" height="101" xmlns="http://www.w3.org/2000/svg" xmlns:xlink="http://www.w3.org/1999/xlink" xml:space="preserve" overflow="hidden"><g transform="translate(-2177 -1164)"><g><path d="M2252 1177.5C2252 1182.75 2236.11 1187 2216.5 1187 2196.89 1187 2181 1182.75 2181 1177.5 2181 1172.25 2196.89 1168 2216.5 1168 2236.11 1168 2252 1172.25 2252 1177.5Z" fill="#156082" fill-rule="evenodd" fill-opacity="1"/><path d="M2241.86 1200.67C2240.34 1200.67 2239.32 1199.73 2239.32 1198.33 2239.32 1196.93 2240.34 1196 2241.86 1196 2243.38 1196 2244.39 1196.93 2244.39 1198.33 2244.39 1199.73 2243.38 1200.67 2241.86 1200.67ZM2216.5 1191.33C2196.98 1191.33 2181 1187.13 2181 1182L2181 1200.67C2181 1205.8 2196.98 1210 2216.5 1210 2236.02 1210 2252 1205.8 2252 1200.67L2252 1182C2252 1187.13 2236.02 1191.33 2216.5 1191.33Z" fill="#156082" fill-rule="evenodd" fill-opacity="1"/><path d="M2241.86 1223.67C2240.34 1223.67 2239.32 1222.73 2239.32 1221.33 2239.32 1219.93 2240.34 1219 2241.86 1219 2243.38 1219 2244.39 1219.93 2244.39 1221.33 2244.39 1222.73 2243.38 1223.67 2241.86 1223.67ZM2216.5 1214.33C2196.98 1214.33 2181 1210.13 2181 1205L2181 1223.67C2181 1228.8 2196.98 1233 2216.5 1233 2236.02 1233 2252 1228.8 2252 1223.67L2252 1205C2252 1210.13 2236.02 1214.33 2216.5 1214.33Z" fill="#156082" fill-rule="evenodd" fill-opacity="1"/><path d="M2241.86 1246.67C2240.34 1246.67 2239.32 1245.73 2239.32 1244.33 2239.32 1242.93 2240.34 1242 2241.86 1242 2243.38 1242 2244.39 1242.93 2244.39 1244.33 2244.39 1245.73 2243.38 1246.67 2241.86 1246.67ZM2216.5 1237.33C2196.98 1237.33 2181 1233.13 2181 1228L2181 1246.67C2181 1251.8 2196.98 1256 2216.5 1256 2236.02 1256 2252 1251.8 2252 1246.67L2252 1228C2252 1233.13 2236.02 1237.33 2216.5 1237.33Z" fill="#156082" fill-rule="evenodd" fill-opacity="1"/><rect x="2225" y="1223" width="34" height="38.9999" fill="#FFFFFF" fill-opacity="1"/><path d="M2225.77 1223.9 2232.69 1223.9 2232.69 1227.35 2250.31 1227.35 2250.31 1223.9 2257.23 1223.9 2257.23 1259.55 2225.77 1259.55 2225.77 1223.9ZM2241.56 1219.3C2242.57 1219.3 2243.39 1220.1 2243.39 1221.02 2243.39 1222 2242.57 1222.75 2241.5 1222.75 2240.43 1222.75 2239.61 1222 2239.61 1221.02 2239.61 1220.05 2240.43 1219.3 2241.56 1219.3ZM2222 1222.75 2222 1260.7C2222 1261.96 2223.13 1263 2224.52 1263L2258.48 1263C2259.87 1263 2261 1261.96 2261 1260.7L2261 1222.75C2261 1221.48 2259.87 1220.45 2258.48 1220.45L2247.79 1220.45 2247.79 1219.3C2247.79 1218.03 2246.66 1217 2245.27 1217L2237.73 1217C2236.34 1217 2235.21 1218.03 2235.21 1219.3L2235.21 1220.45 2224.52 1220.45C2223.13 1220.45 2222 1221.48 2222 1222.75Z" fill="#3B7D23" fill-rule="evenodd" fill-opacity="1"/><path d="M2230 1232 2241 1232 2241 1234 2230 1234Z" fill="#3B7D23" fill-rule="evenodd" fill-opacity="1"/><path d="M2230 1239 2241 1239 2241 1241 2230 1241Z" fill="#3B7D23" fill-rule="evenodd" fill-opacity="1"/><path d="M2230 1245 2241 1245 2241 1248 2230 1248Z" fill="#3B7D23" fill-rule="evenodd" fill-opacity="1"/><path d="M2230 1252 2241 1252 2241 1255 2230 1255Z" fill="#3B7D23" fill-rule="evenodd" fill-opacity="1"/><path d="M2245 1232.39 2246.25 1231.22 2247.81 1232.67 2251.75 1229 2253 1230.17 2247.81 1235Z" fill="#3B7D23" fill-rule="evenodd" fill-opacity="1"/><path d="M2245 1239.39 2246.25 1238.22 2247.81 1239.67 2251.75 1236 2253 1237.17 2247.81 1242Z" fill="#3B7D23" fill-rule="evenodd" fill-opacity="1"/><path d="M2245 1246.39 2246.25 1245.22 2247.81 1246.67 2251.75 1243 2253 1244.17 2247.81 1249Z" fill="#3B7D23" fill-rule="evenodd" fill-opacity="1"/><path d="M2245 1253.39 2246.25 1252.22 2247.81 1253.67 2251.75 1250 2253 1251.17 2247.81 1256Z" fill="#3B7D23" fill-rule="evenodd" fill-opacity="1"/></g></g></svg>